:SAMPLES-PER-SECOND 24
:FULLY-SPECIFIED
:DEGREES
575
root  5.99034 38.5704 24.4702 1.41272 -48.2996 -1.95306
RightUpLeg  -0.74629 -2.58044 -5.11128
RightLeg  22.693 -10.0369 -4.78932
RightFoot  -19.7227 0.25388 5.28727
RightToes  -2.08645e-008 3.77894e-005 6.81332e-007
Spine  -6.24562 2.58642 6.64117
Spine1  7.17258 2.92929 -3.32061
HEad  8.22955 22.7058 1.54366
LeftShoulder1  1.98208 -4.84576 -17.0736
LeftArm  -69.7176 -44.4782 6.72235
LeftForeArm  -170.701 -56.0628 -166.678
LeftHand  1.24884 10.7979 26.4048
RightShoulder  1.71735 3.49261 18.0353
RightArm  -26.6759 55.0389 36.8326
RightForeArm  -177.657 64.4322 160.724
RightHand  -1.64579 0.912498 -29.8758
LeftUpLeg  -12.4974 -1.57745 14.9507
LeftLeg  10.0918 -4.21556 2.28931
LeftFoot  -1.75671 1.51925 -17.8725
LeftToes  1.24767e-006 1.47042e-008 1.32732e-009
576
root  6.13814 38.46 24.144 0.776001 -47.1038 -1.88361
RightUpLeg  -1.29362 -3.80242 -4.95492
RightLeg  24.5094 -10.102 -5.21217
RightFoot  -20.2738 0.235375 4.77105
RightToes  -2.08645e-008 3.77894e-005 6.81332e-007
Spine  -4.77947 2.42429 6.5465
Spine1  6.59756 2.73888 -2.83503
HEad  7.36871 21.7437 1.06184
LeftShoulder1  2.02054 -4.96025 -17.2187
LeftArm  -70.6721 -45.1419 7.56817
LeftForeArm  -169.685 -56.1869 -166.693
LeftHand  1.26884 10.9533 26.0951
RightShoulder  1.70607 3.44775 18.0322
RightArm  -27.3364 55.357 35.986
RightForeArm  -176.042 64.2286 161.051
RightHand  -1.65257 0.432619 -32.3546
LeftUpLeg  -13.073 -2.68652 15.2004
LeftLeg  10.4862 -4.29922 2.09161
LeftFoot  -1.49474 1.58303 -18.1447
LeftToes  1.24767e-006 1.47042e-008 1.32732e-009
577
root  6.2943 38.3481 23.9221 -0.222046 -46.335 -1.59613
RightUpLeg  -1.48177 -4.12312 -5.039
RightLeg  26.1387 -10.445 -5.75364
RightFoot  -20.8517 0.230654 4.47077
RightToes  -2.08645e-008 3.77894e-005 6.81332e-007
Spine  -3.43671 2.52701 6.57835
Spine1  6.24081 2.89054 -2.66193
HEad  7.60857 20.6929 0.923013
LeftShoulder1  2.04014 -5.05646 -17.1765
LeftArm  -70.5619 -45.8775 7.37559
LeftForeArm  -169.785 -56.8032 -166.373
LeftHand  1.25677 10.8365 26.3818
RightShoulder  1.79452 3.62439 18.7156
RightArm  -27.3415 55.4814 34.7827
RightForeArm  -175.18 64.193 161.165
RightHand  -1.57322 0.047735 -32.9198
LeftUpLeg  -13.3226 -3.70155 15.2871
LeftLeg  11.1455 -4.16794 1.71404
LeftFoot  -1.29302 1.65282 -18.573
LeftToes  1.24767e-006 1.47042e-008 1.32732e-009
578
root  6.41587 38.3239 23.8491 -0.997559 -45.6493 -1.21844
RightUpLeg  -1.25106 -4.28954 -5.27314
RightLeg  26.6193 -11.0578 -6.18942
RightFoot  -20.9337 0.217836 4.28578
RightToes  -2.08645e-008 3.77894e-005 6.81332e-007
Spine  -3.48078 2.59435 6.91429
Spine1  6.94749 3.05332 -2.98858
HEad  8.28141 20.3807 0.768286
LeftShoulder1  2.04643 -5.07239 -17.2081
LeftArm  -69.5375 -45.7785 7.00247
LeftForeArm  -171.095 -57.2791 -166.026
LeftHand  1.27789 10.7058 27.4015
RightShoulder  1.90276 3.86647 19.4089
RightArm  -26.5113 55.4858 35.1065
RightForeArm  -175.996 64.3474 160.959
RightHand  -1.709 0.641448 -32.2906
LeftUpLeg  -13.1667 -3.79848 14.8922
LeftLeg  11.0064 -4.80983 1.61868
LeftFoot  -1.30772 1.65772 -18.6541
LeftToes  1.24767e-006 1.47042e-008 1.32732e-009
579
root  6.48646 38.4184 23.8793 -1.19727 -45.0368 -0.785156
RightUpLeg  -0.915765 -4.22888 -5.55566
RightLeg  25.7739 -11.8078 -6.36135
RightFoot  -20.3742 0.196899 4.23947
RightToes  -2.08645e-008 3.77894e-005 6.81332e-007
Spine  -4.42035 2.70414 6.98774
Spine1  7.65335 3.18934 -3.35902
HEad  8.76442 20.2798 0.264657
LeftShoulder1  2.08948 -5.14792 -17.5218
LeftArm  -67.9643 -44.6202 6.76502
LeftForeArm  -172.567 -57.1875 -165.959
LeftHand  1.28778 10.491 28.6744
RightShoulder  1.95313 3.96197 19.7803
RightArm  -25.7019 55.1225 36.1854
RightForeArm  -176.886 64.4723 160.768
RightHand  -1.89976 1.31814 -32.2802
LeftUpLeg  -12.8742 -2.15844 14.0845
LeftLeg  9.9856 -6.39043 1.82289
LeftFoot  -2.45811 1.46896 -18.583
LeftToes  1.24767e-006 1.47042e-008 1.32732e-009
580
root  6.53351 38.5925 23.9742 -1.05872 -44.5069 -0.26532
RightUpLeg  -0.47439 -4.09005 -5.96287
RightLeg  23.9797 -12.521 -6.2356
RightFoot  -19.4098 0.166599 4.22499
RightToes  -2.08645e-008 3.77894e-005 6.81332e-007
Spine  -5.16381 2.92458 6.51782
Spine1  7.37482 3.36213 -3.42917
HEad  8.81715 19.4009 -0.465074
LeftShoulder1  2.15936 -5.3364 -17.8212
LeftArm  -65.9486 -42.8587 6.30811
LeftForeArm  -173.545 -56.8695 -166.048
LeftHand  1.39068 10.4258 31.1433
RightShoulder  1.98105 3.96328 20.1776
RightArm  -25.6915 54.3466 36.1272
RightForeArm  -175.866 64.1671 161.118
RightHand  -1.94012 1.16652 -33.6492
LeftUpLeg  -12.5013 0.412408 13.1187
LeftLeg  8.3822 -7.44079 2.129
LeftFoot  -4.51179 1.14043 -18.5231
LeftToes  1.24767e-006 1.47042e-008 1.32732e-009
581
root  6.6039 38.7854 24.1344 -0.797119 -44.0562 0.151123
RightUpLeg  0.197858 -4.1233 -6.4441
RightLeg  21.6485 -13.1075 -5.87123
RightFoot  -18.2142 0.133198 4.27177
RightToes  -2.08645e-008 3.77894e-005 6.81332e-007
Spine  -5.6139 3.14261 6.16104
Spine1  6.82149 3.56215 -3.5235
HEad  8.21424 17.8833 -1.40457
LeftShoulder1  2.22753 -5.54012 -18.042
LeftArm  -64.2498 -41.1926 6.10173
LeftForeArm  -174.362 -56.5742 -166.136
LeftHand  1.53809 10.5724 33.2438
RightShoulder  1.99912 3.95642 20.4647
RightArm  -26.3216 53.8805 35.3082
RightForeArm  -174.502 63.6464 161.663
RightHand  -1.9837 0.990719 -35.241
LeftUpLeg  -11.9357 2.49413 12.3347
LeftLeg  6.44947 -6.84357 2.37218
LeftFoot  -6.29627 0.850285 -18.3129
LeftToes  1.24767e-006 1.47042e-008 1.32732e-009
582
root  6.72962 38.9355 24.3339 -0.559448 -43.8152 0.501221
RightUpLeg  0.763245 -3.8284 -6.95232
RightLeg  19.5897 -13.7296 -5.56302
RightFoot  -17.0879 0.107293 4.44353
RightToes  -2.08645e-008 3.77894e-005 6.81332e-007
Spine  -5.79313 3.28961 6.20588
Spine1  6.44959 3.78193 -4.02334
HEad  7.38646 16.6006 -2.30411
LeftShoulder1  2.28343 -5.68374 -18.2839
LeftArm  -63.6314 -39.9872 6.54082
LeftForeArm  -174.517 -56.2931 -166.268
LeftHand  1.58274 10.8126 32.744
RightShoulder  1.96862 3.9064 20.2169
RightArm  -26.782 54.3196 34.8523
RightForeArm  -174.908 63.6016 161.659
RightHand  -1.99262 1.35976 -33.5732
LeftUpLeg  -11.5483 3.53273 11.8219
LeftLeg  5.10949 -4.84328 2.3771
LeftFoot  -7.5523 0.645605 -18.0301
LeftToes  1.24767e-006 1.47042e-008 1.32732e-009
583
root  6.921 39.0127 24.5421 -0.479126 -43.6933 0.845337
RightUpLeg  1.05514 -3.37376 -7.51674
RightLeg  18.3288 -14.2815 -5.48456
RightFoot  -16.3107 0.0891782 4.6003
RightToes  -2.08645e-008 3.77894e-005 6.81332e-007
Spine  -5.34066 3.37831 6.33583
Spine1  5.92892 3.99013 -4.6159
HEad  6.95249 15.7179 -2.71918
LeftShoulder1  2.32559 -5.79599 -18.4498
LeftArm  -63.629 -39.291 7.03962
LeftForeArm  -173.729 -56.0674 -166.443
LeftHand  1.76299 11.3994 32.8791
RightShoulder  1.92367 3.84658 19.7918
RightArm  -27.1452 55.3782 34.1555
RightForeArm  -176.596 63.9354 161.233
RightHand  -1.93101 1.39962 -32.4065
LeftUpLeg  -11.7471 3.76605 11.3915
LeftLeg  5.09601 -2.57051 2.19529
LeftFoot  -8.35216 0.521097 -17.9418
LeftToes  1.24767e-006 1.47042e-008 1.32732e-009
584
root  7.16165 39.0357 24.7729 -0.540039 -43.649 0.988647
RightUpLeg  1.42988 -3.30312 -8.10285
RightLeg  17.4317 -14.3565 -5.39111
RightFoot  -15.7814 0.077728 4.76256
RightToes  -2.08645e-008 3.77894e-005 6.81332e-007
Spine  -4.2721 3.49363 6.50962
Spine1  5.37452 4.20346 -4.89068
HEad  6.60309 14.7213 -2.87115
LeftShoulder1  2.38332 -5.95942 -18.6426
LeftArm  -63.369 -38.801 6.81135
LeftForeArm  -172.889 -55.3749 -166.848
LeftHand  2.23697 12.348 35.7353
RightShoulder  1.93248 3.87111 19.8262
RightArm  -28.1713 56.2182 32.7108
RightForeArm  -178.112 63.9215 161.097
RightHand  -1.85987 1.23542 -32.0135
LeftUpLeg  -12.1944 3.60204 10.9904
LeftLeg  5.91039 -1.18559 1.98626
LeftFoot  -8.43325 0.511251 -18.0325
LeftToes  1.24767e-006 1.47042e-008 1.32732e-009
